<svg style="position:absoulte;height:0;">
  <defs>
    <symbol id="brand" viewBox="0 0 276.84286 249.53351">
      <g transform="translate(0.91399588,-803.59911)">
        <path fill="#1b1b1b" d="m 118.05562,963.1264 -2.83813,-2.83825 0.43192,-0.32312 c 4.10181,-3.0686 7.51738,-7.02296 10.05493,-11.64103 0.30748,-0.55958 1.07148,-2.08869 1.32716,-2.65625 0.79128,-1.7565 1.47324,-3.61987 2.03174,-5.55154 0.0529,-0.18303 0.0962,-0.34124 0.0962,-0.35156 0,-0.0104 -0.60469,-0.0188 -1.34375,-0.0188 l -1.34375,0 0,-11.28125 0,-11.28125 1.34375,0 c 0.73906,0 1.34375,-0.009 1.34375,-0.0199 0,-0.049 -0.36836,-1.27326 -0.55349,-1.83943 -1.68733,-5.16027 -4.40185,-9.89441 -7.86624,-13.71875 -1.57353,-1.73702 -3.40923,-3.40674 -5.16918,-4.7018 l -0.35453,-0.26088 2.80395,-2.80407 c 1.66464,-1.66472 2.79518,-2.81826 2.78237,-2.83897 -0.0144,-0.0233 0.0162,-0.0349 0.0915,-0.0349 0.0622,0 0.10561,0.012 0.0965,0.0268 -0.009,0.0147 0.26202,0.28851 0.60248,0.60841 3.41995,3.21339 6.56797,7.10889 8.98205,11.11481 0.7944,1.31821 1.29357,2.23334 2.03699,3.73438 1.10293,2.22691 1.87949,4.10519 2.64216,6.39062 0.43304,1.29765 0.94985,3.09511 1.15689,4.02365 l 0.0715,0.32052 2.20268,-0.008 2.20269,-0.008 0.23004,-0.90459 c 1.96134,-7.71229 5.7739,-14.88543 11.19571,-21.06416 0.99482,-1.1337 2.56864,-2.76219 3.57137,-3.69544 0.28727,-0.26735 0.51495,-0.49799 0.50597,-0.51252 -0.009,-0.0145 0.0267,-0.0264 0.0793,-0.0264 0.0555,0 0.0956,0.0163 0.0956,0.039 0,0.0215 1.25894,1.29799 2.79763,2.83676 l 2.79764,2.79776 -0.27392,0.20231 c -3.35071,2.47474 -6.31568,5.61757 -8.64991,9.1688 -2.08663,3.17454 -3.70345,6.67955 -4.81345,10.43474 -0.11096,0.37538 -0.20174,0.6953 -0.20174,0.71094 0,0.0167 0.55719,0.0285 1.34375,0.0285 l 1.34375,0 0,11.28125 0,11.28125 -1.34375,0 c -0.78656,0 -1.34375,0.0118 -1.34375,0.0285 0,0.0692 0.42692,1.46351 0.66583,2.17469 2.27092,6.75977 6.23398,12.60786 11.49042,16.95582 0.39181,0.3241 1.23434,0.98398 1.57133,1.23068 l 0.21196,0.15517 -2.84274,2.84274 -2.84273,2.84273 -0.36922,-0.34135 c -0.56989,-0.52686 -1.64325,-1.58982 -2.2871,-2.26495 -4.16105,-4.36317 -7.4193,-9.17764 -9.85464,-14.56147 -1.23831,-2.73752 -2.233,-5.63699 -3.0018,-8.75 l -0.0733,-0.29687 -2.20323,-0.008 -2.20323,-0.008 -0.0549,0.24239 c -0.26848,1.18492 -0.86784,3.23799 -1.34797,4.6174 -2.52997,7.26852 -6.55523,13.70863 -12.10333,19.36439 -0.60525,0.617 -2.00438,1.96461 -2.06315,1.98719 -0.0112,0.005 -1.29754,-1.26939 -2.8585,-2.83043 z m 27.13509,-34.66178 0,-5.5625 -6.5,0 -6.5,0 0,5.5625 0,5.5625 6.5,0 6.5,0 0,-5.5625 z" />
        <rect stroke="#1b1b1b" stroke-width="2.5" fill="none" width="299.87015" height="127.01006" x="-1.7869498" y="805.63507" transform="matrix(0.91661995,0.39975976,0.00196109,0.99999808,0,0)" />
      </g>
    </symbol>
  </defs>
</svg>
